# xmcd
#
# Track frame offsets: 
#        150
#        21920
#        43690
#        65460
#        87230
#
# Disc length: 1447 seconds
#
# Revision: 0
# Processed by: cddbd v1.5.2PL0 Copyright (c) Steve Scherf et al.
# Submitted via: ExactAudioCopyFreeDBPlugin 1.0
#
DISCID=3a05a505
DTITLE=Phil Stacey - You're Not Shaken (Christian World Soundtraks) (2
DTITLE=009)
DYEAR=2009
DGENRE=Performance Trax
TTITLE0=You're Not Shaken - Demonstration
TTITLE1=You're Not Shaken - Performance Track - Original Key with BGV'
TTITLE1=s [Db]
TTITLE2=You're Not Shaken - Performance Track - Higher Key with BGV's 
TTITLE2=[E]
TTITLE3=You're Not Shaken - Performance Track - Lower Key with BGV's [
TTITLE3=Bb]
TTITLE4=You're Not Shaken - Performance Track - Original Key without B
TTITLE4=GV's [Db]
EXTD=
EXTT0=
EXTT1=
EXTT2=
EXTT3=
EXTT4=
PLAYORDER=
